<svg id="Layer_25" data-name="Layer 25" xmlns="http://www.w3.org/2000/svg" viewBox="0 0 416.44 515.06"><path d="M266,505.17c.84,2.07,1.73,4.05,2.63,6-50-33.39-87.45-76.27-113.42-129.82q.54-2.73,1.16-5.6c.09-.43.2-.88.29-1.33.33-1.54.67-3.08,1.05-4.66.09-.47.2-.92.31-1.39.37-1.61.77-3.23,1.17-4.89l.39-1.54q.58-2.4,1.25-4.87c.06-.21.11-.43.17-.68h0c2.06-7.67,4.44-15.75,7.27-24,1.12,3.14,1.06,2.81-.08-.54,7.93-25,32.87-83.78,98.06-114-23.63-3.55-55.78,4.08-55.78,4.08,49.6-39.44,131-22.2,131-22.2S225.69,266.26,241.2,407.44l0,0s0,.15.06.4a268.67,268.67,0,0,0,7.5,39.45c1.08,4.89,2.31,10.05,3.63,15.25,1.9,7.52,4,15.25,6.38,22.69.58,1.8,1.16,3.56,1.75,5.32.18.52.36,1.07.52,1.57.6,1.73,1.22,3.43,1.83,5.1.21.53.39,1.08.61,1.61.63,1.66,1.26,3.24,1.9,4.84C265.57,504.14,265.77,504.68,266,505.17ZM492,360.82a338.33,338.33,0,0,1-45.17,78.82l-12.64-12.89c-.08.1-.11.19-.18.29-68.73-57.85-62.58-140.54-62.58-140.54s17.6,59.12,81.5,85.29c36.18-71.8,43.45-153.72,43.17-227.34-28.68-10.2-56.6-28.43-83.71-46.11C378,75.94,345.51,54.74,319,54.74c-1,0-2,.08-3,.14s-1.95,0-2.92.12-1.8.23-2.71.34c-1.07.11-2.11.22-3.19.4-.52.08-1,.22-1.56.3-27.08,5-55.11,23.85-84.56,43.72-15.41,10.4-31.1,21-47.28,29.94l-.21.12c-2.92,1.6-5.87,3.14-8.82,4.62l-1.1.6c-2.72,1.35-5.45,2.61-8.19,3.85-.64.29-1.27.6-1.89.86-2.53,1.13-5.09,2.13-7.62,3.12-.73.28-1.46.62-2.19.89v0c-.65.23-1.28.52-1.93.75-.1,28.73.95,58.73,4.42,88.88l1.76-2.13v0c15.27-21.47,41.63-52.73,73.41-65.82l-2.82.06-9.61.19-30.94.59L202.52,148c5.34-4,10.72-7.94,16.34-11.57S230.18,129.28,236,126s11.82-6.37,18-9.14,12.35-5.3,18.7-7.54a162.7,162.7,0,0,1,19.42-5.61A156.51,156.51,0,0,1,312,100.44,175.78,175.78,0,0,1,372,105a180.8,180.8,0,0,1,19.14,5.91,172.19,172.19,0,0,1,18.37,7.94c5.94,3,11.81,6.23,17.45,9.81s11.18,7.37,16.48,11.49,10.45,8.48,15.4,13.2c2.46,2.39,4.86,4.81,7.29,7.61.32.35.61.71.94,1.1l.51.64.6.85.39.59,0,0c.09.14-.09-.19.21.3l.11.21.19.39c.3.54.6,1.05.85,1.62a25.51,25.51,0,0,1,2.12,7.11,29.38,29.38,0,0,1-1.54,14,42.08,42.08,0,0,1-2.67,5.94c-.52.93-1,1.86-1.65,2.76-.07.13-.16.25-.24.37,44.9,53.58-23.1,103.89-23.1,103.89s4.3-49.5-69.75-81.55l48.11-6.57c4.75-39.05,30.08-30.08,30.08-30.08a2.91,2.91,0,0,1,.27.24,20.34,20.34,0,0,0,1.47-2.18,11.69,11.69,0,0,0,1.54-5,7.67,7.67,0,0,0-.28-2.25c-.06-.19-.14-.39-.2-.58l-.07-.14v-.08c.25.46,0,.09.1.17l0-.08-.23-.45-.06-.14c0-.06-.14-.24-.2-.36s-.32-.55-.52-.82a71.3,71.3,0,0,0-5.34-7.15,138.74,138.74,0,0,0-12.85-13.41,152.92,152.92,0,0,0-14.52-11.86,165.93,165.93,0,0,0-15.87-10.07,159.57,159.57,0,0,0-17-8,134.45,134.45,0,0,0-17.89-5.74,128,128,0,0,0-18.5-3.08,131.29,131.29,0,0,0-18.71-.33,144.1,144.1,0,0,0-18.5,2.21,160.52,160.52,0,0,0-18.09,4.4c-5.92,1.84-11.81,3.83-17.53,6.22a212.55,212.55,0,0,0-33.11,17.26c-1.69,1.09-3.37,2.23-5,3.34,4.9-.14,9.81-.24,14.7-.38l38.19-1,.11,0,4.07-.1-37.37,20c-1.79,1-4,2.19-6.06,3.38s-4.13,2.45-6.19,3.74c-4.09,2.58-8.1,5.28-12.07,8.07-3.33,2.32-6.6,4.74-9.82,7.22a169.79,169.79,0,0,0-18.86,17.83l-.14.17a182.46,182.46,0,0,0-19.18,24.94A334.71,334.71,0,0,0,156,284l-1.37,3.14c-.87,2.08-1.73,4.18-2.56,6.3-2.51,6.32-4.79,12.82-6.79,19.47-.33,1.11-.62,2.2-.93,3.32-.35,1.28-.72,2.54-1.06,3.83s-.62,2.45-.91,3.71c-.25,1.05-.5,2.08-.76,3.14a1.47,1.47,0,0,1-.08.35c-.33,1.5-.62,3-.91,4.48-.18.94-.41,1.91-.57,2.88-.45,2.46-.86,4.94-1.2,7.44a429.2,429.2,0,0,1-12.19-41.4h0C115.11,252.87,110,198.33,110.82,133.39l.14-11.22,4.92-1.35h0l6.23-1.72c27-7.46,54.54-26,81.17-44,18.36-12.4,37-25,56.24-34.52,2.12-1,4.22-2,6.34-3,.31-.13.59-.28.88-.42,1.9-.84,3.8-1.63,5.7-2.41.53-.21,1.07-.46,1.59-.67a142.12,142.12,0,0,1,22.17-6.89h0c2-.43,4-.77,5.94-1.1.54-.08,1.06-.2,1.59-.28,1.69-.26,3.41-.41,5.12-.58.83-.08,1.64-.22,2.45-.28,1.4-.1,2.81-.11,4.22-.16,1.15,0,2.29-.13,3.43-.13h0c36,0,72.33,23.67,110.76,48.74,28.61,18.65,58.17,38,86.06,45.67l11.14,3.08.14,11.2C528.32,227.22,517.16,299.51,492,360.82Zm-36.5-150.45-2.57-12.32c-11.33,3.32-7.05,6.37-7.05,6.37ZM393.32,456.54a.1.1,0,0,1,0-.05C297.3,340.13,357,222.72,357,222.72l-.11.08h0l-.48.39-.05,0-.12.08-.16.15c-.06,0-.12.09-.17.12s0,0-.08.07l-2.24,1.83-.74.62a3.31,3.31,0,0,1-.34.3l-.74.64-.56.48-1,.9a.25.25,0,0,1-.09.09c-.8.7-1.65,1.46-2.55,2.3-.17.16-.35.33-.54.48a1.1,1.1,0,0,1-.16.15l-2.07,2-.06,0-1.4,1.35-.2.21a2.37,2.37,0,0,0-.28.27h0c-.46.48-1,1-1.45,1.44l-.09.1c-.32.34-.67.68-1,1l-.94.94c-.06.08-.14.14-.19.22a2.24,2.24,0,0,0-.35.34l-.06,0-1.55,1.63s-.06.06-.09.08l-1.63,1.73c-.17.18-.34.36-.49.54l-.09.09c-.17.19-.34.34-.51.53,0,0,0,0,0,0-.56.61-1.12,1.22-1.67,1.84l0,0c-.95,1.07-1.93,2.16-2.92,3.29,0,0,0,0,0,.06-.5.56-1,1.14-1.49,1.71-.3.37-.59.7-.9,1.07l0,0L326,253.47c-.82,1-1.62,2-2.45,3-.22.25-.43.54-.66.81l0,0c-.51.66-1,1.34-1.57,2-.29.39-.58.75-.88,1.16l-.11.12c-.19.25-.39.49-.58.76l0,0c-.6.78-1.2,1.58-1.8,2.39v0l-.69.91s0,0,0,0c-.6.8-1.2,1.64-1.8,2.47,0,0,0,0,0,0-1.09,1.5-2.16,3-3.21,4.57h0c-.62.89-1.22,1.78-1.81,2.69a.3.3,0,0,0-.09.13c-1,1.55-2.07,3.14-3.1,4.78,0,0,0,0,0,0-.59.93-1.19,1.89-1.77,2.85v0c-.34.55-.67,1.07-1,1.61l-1.46,2.44v0c-.27.47-.54.91-.8,1.38-.52.93-1.07,1.86-1.58,2.81,0,0,0,0,0,0-.29.51-.57,1-.84,1.54-.51.9-1,1.81-1.48,2.74,0,0,0,0,0,0-1,1.85-1.95,3.74-2.9,5.68a.15.15,0,0,0,0,.07c-.47.91-.91,1.83-1.35,2.78-1,2.13-2,4.3-3,6.52,0,0,0,0,0,.06-.5,1.12-1,2.29-1.47,3.44,0,0,0,.05,0,.06-.43,1-.84,2.07-1.25,3.09-.23.61-.47,1.2-.71,1.8v0q-1.69,4.44-3.23,9c-.13.4-.29.78-.4,1.19v0c-.16.46-.32.95-.47,1.41a.1.1,0,0,0,0,.07c-.39,1.26-.78,2.5-1.16,3.77,0,0,0,0,0,.05-.15.47-.28.94-.43,1.42,0,0,0,.06,0,.1-.38,1.28-.72,2.56-1.08,3.85v.05c-.15.51-.27,1-.4,1.51,0,0,0,0,0,0-.11.43-.2.83-.31,1.23-.35,1.43-.72,2.86-1,4.34s-.59,2.7-.87,4.05v.05c-1.14,5.45-2.05,11.1-2.73,16.88,0,.24-.07.49-.11.73-.28,2.59-.53,5.19-.73,7.83v0c0,.53-.06,1.08-.11,1.6-.1,1.55-.17,3.05-.25,4.61v0c-.06,1.5-.13,3-.15,4.56,0,.58,0,1.17,0,1.73v0c0,1.56,0,3.12,0,4.67s.05,3.16.12,4.7c0,.63,0,1.25,0,1.87.07,1.33.15,2.68.24,4,.05.85.08,1.71.16,2.6v.05c.38,5,.94,10.1,1.72,15.31v.05c.26,1.74.53,3.46.83,5.19a0,0,0,0,0,0,0c.49,2.88,1.07,5.79,1.69,8.72a.06.06,0,0,0,0,0c.38,1.81.77,3.62,1.22,5.46h0q1.72,7.2,4,14.58s0,.06,0,.09c.88,2.89,1.87,5.82,2.88,8.78l0,.13c.71,2,1.43,4.09,2.2,6.15,0,0,0,0,0,0q3,7.92,6.6,16.08a.69.69,0,0,1,.07.15c1.06,2.36,2.13,4.69,3.26,7.07l0,0c-.06,0-.11-.07-.17-.08L309,517.11l10,22.59,7.13-3.54c32.19-16,60.19-35.07,84.35-57.21l-9.51-12.44ZM345.48,188.61l0,0-.3-.16a31.45,31.45,0,0,1-3.64-2.14l-18.34-10.84,11.92,1.11-.68-14.92c-5.77-9.4-24.07-11.33-24.07-11.33,10.75-3.64,46.33.65,61.29,15.82s27.37,18.61,27.37,18.61c-9.18,5.35-25.43-2.78-25.43-2.78C362.69,193.2,352.58,192.08,345.48,188.61Zm23.4-10.94c-.41-.44-.78-.85-1.18-1.27-2.73,2.26-5.41,6.11-12.91,3.55-.3-.13-.64-.26-1.09-.41-4.75-1.73-5.89-6.92-6-10.84l.15-3.94c.05-.49.11-.8.11-.8l-.09.1.77-2a26.59,26.59,0,0,0-8.81-2.42V177C356.37,194.81,368.88,177.67,368.88,177.67Z" transform="translate(-110.73 -24.64)"/><path d="M266,505.17c.84,2.07,1.73,4.05,2.63,6-50-33.39-87.45-76.27-113.42-129.82q.54-2.73,1.16-5.6c.09-.43.2-.88.29-1.33.33-1.54.67-3.08,1.05-4.66.09-.47.2-.92.31-1.39.37-1.61.77-3.23,1.17-4.89l.39-1.54q.58-2.4,1.25-4.87c.06-.21.11-.43.17-.68h0c2.06-7.67,4.44-15.75,7.27-24,1.12,3.14,1.06,2.81-.08-.54,7.93-25,32.87-83.78,98.06-114-23.63-3.55-55.78,4.08-55.78,4.08,49.6-39.44,131-22.2,131-22.2S225.69,266.26,241.2,407.44l0,0s0,.15.06.4a268.67,268.67,0,0,0,7.5,39.45c1.08,4.89,2.31,10.05,3.63,15.25,1.9,7.52,4,15.25,6.38,22.69.58,1.8,1.16,3.56,1.75,5.32.18.52.36,1.07.52,1.57.6,1.73,1.22,3.43,1.83,5.1.21.53.39,1.08.61,1.61.63,1.66,1.26,3.24,1.9,4.84C265.57,504.14,265.77,504.68,266,505.17ZM492,360.82a338.33,338.33,0,0,1-45.17,78.82l-12.64-12.89c-.08.1-.11.19-.18.29-68.73-57.85-62.58-140.54-62.58-140.54s17.6,59.12,81.5,85.29c36.18-71.8,43.45-153.72,43.17-227.34-28.68-10.2-56.6-28.43-83.71-46.11C378,75.94,345.51,54.74,319,54.74c-1,0-2,.08-3,.14s-1.95,0-2.92.12-1.8.23-2.71.34c-1.07.11-2.11.22-3.19.4-.52.08-1,.22-1.56.3-27.08,5-55.11,23.85-84.56,43.72-15.41,10.4-31.1,21-47.28,29.94l-.21.12c-2.92,1.6-5.87,3.14-8.82,4.62l-1.1.6c-2.72,1.35-5.45,2.61-8.19,3.85-.64.29-1.27.6-1.89.86-2.53,1.13-5.09,2.13-7.62,3.12-.73.28-1.46.62-2.19.89v0c-.65.23-1.28.52-1.93.75-.1,28.73.95,58.73,4.42,88.88l1.76-2.13v0c15.27-21.47,41.63-52.73,73.41-65.82l-2.82.06-9.61.19-30.94.59L202.52,148c5.34-4,10.72-7.94,16.34-11.57S230.18,129.28,236,126s11.82-6.37,18-9.14,12.35-5.3,18.7-7.54a162.7,162.7,0,0,1,19.42-5.61A156.51,156.51,0,0,1,312,100.44,175.78,175.78,0,0,1,372,105a180.8,180.8,0,0,1,19.14,5.91,172.19,172.19,0,0,1,18.37,7.94c5.94,3,11.81,6.23,17.45,9.81s11.18,7.37,16.48,11.49,10.45,8.48,15.4,13.2c2.46,2.39,4.86,4.81,7.29,7.61.32.35.61.71.94,1.1l.51.64.6.85.39.59,0,0c.09.14-.09-.19.21.3l.11.21.19.39c.3.54.6,1.05.85,1.62a25.51,25.51,0,0,1,2.12,7.11,29.38,29.38,0,0,1-1.54,14,42.08,42.08,0,0,1-2.67,5.94c-.52.93-1,1.86-1.65,2.76-.07.13-.16.25-.24.37,44.9,53.58-23.1,103.89-23.1,103.89s4.3-49.5-69.75-81.55l48.11-6.57c4.75-39.05,30.08-30.08,30.08-30.08a2.91,2.91,0,0,1,.27.24,20.34,20.34,0,0,0,1.47-2.18,11.69,11.69,0,0,0,1.54-5,7.67,7.67,0,0,0-.28-2.25c-.06-.19-.14-.39-.2-.58l-.07-.14v-.08c.25.46,0,.09.1.17l0-.08-.23-.45-.06-.14c0-.06-.14-.24-.2-.36s-.32-.55-.52-.82a71.3,71.3,0,0,0-5.34-7.15,138.74,138.74,0,0,0-12.85-13.41,152.92,152.92,0,0,0-14.52-11.86,165.93,165.93,0,0,0-15.87-10.07,159.57,159.57,0,0,0-17-8,134.45,134.45,0,0,0-17.89-5.74,128,128,0,0,0-18.5-3.08,131.29,131.29,0,0,0-18.71-.33,144.1,144.1,0,0,0-18.5,2.21,160.52,160.52,0,0,0-18.09,4.4c-5.92,1.84-11.81,3.83-17.53,6.22a212.55,212.55,0,0,0-33.11,17.26c-1.69,1.09-3.37,2.23-5,3.34,4.9-.14,9.81-.24,14.7-.38l38.19-1,.11,0,4.07-.1-37.37,20c-1.79,1-4,2.19-6.06,3.38s-4.13,2.45-6.19,3.74c-4.09,2.58-8.1,5.28-12.07,8.07-3.33,2.32-6.6,4.74-9.82,7.22a169.79,169.79,0,0,0-18.86,17.83l-.14.17a182.46,182.46,0,0,0-19.18,24.94A334.71,334.71,0,0,0,156,284l-1.37,3.14c-.87,2.08-1.73,4.18-2.56,6.3-2.51,6.32-4.79,12.82-6.79,19.47-.33,1.11-.62,2.2-.93,3.32-.35,1.28-.72,2.54-1.06,3.83s-.62,2.45-.91,3.71c-.25,1.05-.5,2.08-.76,3.14a1.47,1.47,0,0,1-.08.35c-.33,1.5-.62,3-.91,4.48-.18.94-.41,1.91-.57,2.88-.45,2.46-.86,4.94-1.2,7.44a429.2,429.2,0,0,1-12.19-41.4h0C115.11,252.87,110,198.33,110.82,133.39l.14-11.22,4.92-1.35h0l6.23-1.72c27-7.46,54.54-26,81.17-44,18.36-12.4,37-25,56.24-34.52,2.12-1,4.22-2,6.34-3,.31-.13.59-.28.88-.42,1.9-.84,3.8-1.63,5.7-2.41.53-.21,1.07-.46,1.59-.67a142.12,142.12,0,0,1,22.17-6.89h0c2-.43,4-.77,5.94-1.1.54-.08,1.06-.2,1.59-.28,1.69-.26,3.41-.41,5.12-.58.83-.08,1.64-.22,2.45-.28,1.4-.1,2.81-.11,4.22-.16,1.15,0,2.29-.13,3.43-.13h0c36,0,72.33,23.67,110.76,48.74,28.61,18.65,58.17,38,86.06,45.67l11.14,3.08.14,11.2C528.32,227.22,517.16,299.51,492,360.82Zm-36.5-150.45-2.57-12.32c-11.33,3.32-7.05,6.37-7.05,6.37ZM393.32,456.54a.1.1,0,0,1,0-.05C297.3,340.13,357,222.72,357,222.72l-.11.08h0l-.48.39-.05,0-.12.08-.16.15c-.06,0-.12.09-.17.12s0,0-.08.07l-2.24,1.83-.74.62a3.31,3.31,0,0,1-.34.3l-.74.64-.56.48-1,.9a.25.25,0,0,1-.09.09c-.8.7-1.65,1.46-2.55,2.3-.17.16-.35.33-.54.48a1.1,1.1,0,0,1-.16.15l-2.07,2-.06,0-1.4,1.35-.2.21a2.37,2.37,0,0,0-.28.27h0c-.46.48-1,1-1.45,1.44l-.09.1c-.32.34-.67.68-1,1l-.94.94c-.06.08-.14.14-.19.22a2.24,2.24,0,0,0-.35.34l-.06,0-1.55,1.63s-.06.06-.09.08l-1.63,1.73c-.17.18-.34.36-.49.54l-.09.09c-.17.19-.34.34-.51.53,0,0,0,0,0,0-.56.61-1.12,1.22-1.67,1.84l0,0c-.95,1.07-1.93,2.16-2.92,3.29,0,0,0,0,0,.06-.5.56-1,1.14-1.49,1.71-.3.37-.59.7-.9,1.07l0,0L326,253.47c-.82,1-1.62,2-2.45,3-.22.25-.43.54-.66.81l0,0c-.51.66-1,1.34-1.57,2-.29.39-.58.75-.88,1.16l-.11.12c-.19.25-.39.49-.58.76l0,0c-.6.78-1.2,1.58-1.8,2.39v0l-.69.91s0,0,0,0c-.6.8-1.2,1.64-1.8,2.47,0,0,0,0,0,0-1.09,1.5-2.16,3-3.21,4.57h0c-.62.89-1.22,1.78-1.81,2.69a.3.3,0,0,0-.09.13c-1,1.55-2.07,3.14-3.1,4.78,0,0,0,0,0,0-.59.93-1.19,1.89-1.77,2.85v0c-.34.55-.67,1.07-1,1.61l-1.46,2.44v0c-.27.47-.54.91-.8,1.38-.52.93-1.07,1.86-1.58,2.81,0,0,0,0,0,0-.29.51-.57,1-.84,1.54-.51.9-1,1.81-1.48,2.74,0,0,0,0,0,0-1,1.85-1.95,3.74-2.9,5.68a.15.15,0,0,0,0,.07c-.47.91-.91,1.83-1.35,2.78-1,2.13-2,4.3-3,6.52,0,0,0,0,0,.06-.5,1.12-1,2.29-1.47,3.44,0,0,0,.05,0,.06-.43,1-.84,2.07-1.25,3.09-.23.61-.47,1.2-.71,1.8v0q-1.69,4.44-3.23,9c-.13.4-.29.78-.4,1.19v0c-.16.46-.32.95-.47,1.41a.1.1,0,0,0,0,.07c-.39,1.26-.78,2.5-1.16,3.77,0,0,0,0,0,.05-.15.47-.28.94-.43,1.42,0,0,0,.06,0,.1-.38,1.28-.72,2.56-1.08,3.85v.05c-.15.51-.27,1-.4,1.51,0,0,0,0,0,0-.11.43-.2.83-.31,1.23-.35,1.43-.72,2.86-1,4.34s-.59,2.7-.87,4.05v.05c-1.14,5.45-2.05,11.1-2.73,16.88,0,.24-.07.49-.11.73-.28,2.59-.53,5.19-.73,7.83v0c0,.53-.06,1.08-.11,1.6-.1,1.55-.17,3.05-.25,4.61v0c-.06,1.5-.13,3-.15,4.56,0,.58,0,1.17,0,1.73v0c0,1.56,0,3.12,0,4.67s.05,3.16.12,4.7c0,.63,0,1.25,0,1.87.07,1.33.15,2.68.24,4,.05.85.08,1.71.16,2.6v.05c.38,5,.94,10.1,1.72,15.31v.05c.26,1.74.53,3.46.83,5.19a0,0,0,0,0,0,0c.49,2.88,1.07,5.79,1.69,8.72a.06.06,0,0,0,0,0c.38,1.81.77,3.62,1.22,5.46h0q1.72,7.2,4,14.58s0,.06,0,.09c.88,2.89,1.87,5.82,2.88,8.78l0,.13c.71,2,1.43,4.09,2.2,6.15,0,0,0,0,0,0q3,7.92,6.6,16.08a.69.69,0,0,1,.07.15c1.06,2.36,2.13,4.69,3.26,7.07l0,0c-.06,0-.11-.07-.17-.08L309,517.11l10,22.59,7.13-3.54c32.19-16,60.19-35.07,84.35-57.21l-9.51-12.44ZM345.48,188.61l0,0-.3-.16a31.45,31.45,0,0,1-3.64-2.14l-18.34-10.84,11.92,1.11-.68-14.92c-5.77-9.4-24.07-11.33-24.07-11.33,10.75-3.64,46.33.65,61.29,15.82s27.37,18.61,27.37,18.61c-9.18,5.35-25.43-2.78-25.43-2.78C362.69,193.2,352.58,192.08,345.48,188.61Zm23.4-10.94c-.41-.44-.78-.85-1.18-1.27-2.73,2.26-5.41,6.11-12.91,3.55-.3-.13-.64-.26-1.09-.41-4.75-1.73-5.89-6.92-6-10.84l.15-3.94c.05-.49.11-.8.11-.8l-.09.1.77-2a26.59,26.59,0,0,0-8.81-2.42V177C356.37,194.81,368.88,177.67,368.88,177.67Z" transform="translate(-110.73 -24.64)"/><path d="M410.44,479l-9.51-12.44-7.61-10a.1.1,0,0,1,0-.05c-89.9-108.89-43.4-218.7-37.07-232.34l-.27-.68S250.42,351.11,357.07,519A349.38,349.38,0,0,0,410.44,479Z" transform="translate(-110.73 -24.64)"/><path d="M452.88,371.79c-63.9-26.17-81.5-85.29-81.5-85.29s9,75.14,70.11,111Z" transform="translate(-110.73 -24.64)"/><path d="M421.2,212.59l-48.11,6.57c74.05,32.05,69.75,81.55,69.75,81.55C461.06,240,421.2,212.59,421.2,212.59Z" transform="translate(-110.73 -24.64)"/><path d="M515.8,119.05c-27.89-7.72-57.45-27-86.06-45.67C391.31,48.31,355,24.64,319,24.64h0v30.1h0c26.53,0,59,21.2,93.36,43.6,27.11,17.68,55,35.91,83.71,46.11,0,.9,0,1.8,0,2.7L527,123.3v-1.17Z" transform="translate(-110.73 -24.64)"/><path d="M146.25,233.36c-3.46-30.15-4.51-60.14-4.41-88.87L111,122.17l-.14,11.22c-.74,57.16,3.15,106.25,12,149.78A190.05,190.05,0,0,1,146.25,233.36Z" transform="translate(-110.73 -24.64)"/><path d="M461.44,195.28s43.61,36.86-7.15,94.24c0,0,7.88-55-21.8-77.12Z" transform="translate(-110.73 -24.64)"/><path d="M341.48,199.79s-64.57,19.35-106.7,65.61h0a141.11,141.11,0,0,0-26,39.73,241.37,241.37,0,0,0-25.74,123.48,313.83,313.83,0,0,0,22.08,27.67h0l.27.29c1.5,1.68,3,3.37,4.53,5v-.09a332.21,332.21,0,0,0,58.66,49.65c-.9-1.93-1.79-3.91-2.63-6-.23-.49-.43-1-.64-1.53-.64-1.6-1.28-3.18-1.9-4.84-.22-.53-.4-1.08-.61-1.62-.61-1.66-1.23-3.36-1.83-5.09-.16-.5-.34-1-.52-1.57-.59-1.76-1.17-3.52-1.75-5.32-2.35-7.44-4.48-15.17-6.38-22.69-1.32-5.2-2.55-10.36-3.63-15.25a268.67,268.67,0,0,1-7.5-39.45c0-.25-.06-.4-.06-.4l0,0C225.69,266.26,341.48,199.79,341.48,199.79Z" transform="translate(-110.73 -24.64)"/><path d="M289.86,222.72s-.66.33-1.84,1-2.89,1.74-5.06,3.09-4.75,3.08-7.63,5.15-6.11,4.46-9.5,7.22-7,5.87-10.74,9.14c-1.85,1.68-3.65,3.53-5.54,5.35s-3.85,3.65-5.65,5.7l-5.64,6.09c-1.93,2-3.61,4.34-5.45,6.53s-3.72,4.38-5.36,6.77l-5,7.11-2.54,3.54-2.28,3.7q-2.28,3.71-4.52,7.37A80.81,80.81,0,0,0,209,308l-3.78,7.4c-1.34,2.38-2.21,4.93-3.27,7.33s-2,4.78-3,7.08c-2.13,4.55-3.32,9.15-4.74,13.28-.68,2.08-1.34,4.07-2,6l-.93,2.76c-.23.92-.44,1.81-.65,2.67-.85,3.46-1.58,6.47-2.18,9l-2,7.8s.52-2.87,1.45-7.91c.47-2.52,1.06-5.58,1.72-9.09.17-.87.35-1.78.52-2.71s.53-1.85.8-2.82c.56-1.92,1.14-3.95,1.76-6.06,1.3-4.2,2.36-8.88,4.36-13.52q1.37-3.54,2.81-7.25a66.88,66.88,0,0,1,3.19-7.46l3.74-7.51a85.25,85.25,0,0,1,4-7.6l4.5-7.5,2.27-3.77,2.54-3.6,5.16-7.16c1.68-2.39,3.68-4.53,5.49-6.79s3.61-4.5,5.58-6.55l5.77-6.1c1.85-2,3.84-3.88,5.8-5.67s3.84-3.58,5.75-5.22c3.93-3.18,7.51-6.34,11.11-8.88,1.78-1.29,3.43-2.61,5.1-3.72l4.76-3.14c3-1.93,5.69-3.51,7.91-4.78C287.16,223.88,289.86,222.72,289.86,222.72Z" transform="translate(-110.73 -24.64)"/></svg>