<svg id="Layer_22" data-name="Layer 22" xmlns="http://www.w3.org/2000/svg" viewBox="0 0 416.44 515.06"><defs><style>.cls-1{fill:#fff}</style></defs><path class="cls-1" d="M268.05 505.51c.84 2.07 1.73 4.05 2.63 6-50-33.39-87.45-76.27-113.42-129.82.36-1.81.75-3.69 1.16-5.6.09-.43.2-.88.29-1.33.33-1.53.66-3.07 1-4.66.1-.46.21-.92.32-1.39q.56-2.4 1.17-4.89.19-.78.39-1.53.59-2.4 1.25-4.87c.06-.22.11-.43.17-.68 2.06-7.68 4.44-15.76 7.27-24 1.12 3.14 1.06 2.81-.08-.54 7.93-25 32.87-83.78 98.06-114-23.63-3.54-55.78 4.08-55.78 4.08 49.6-39.44 131-22.19 131-22.19S227.73 266.6 243.25 407.77s0 .16.06.4a269.92 269.92 0 0 0 7.49 39.45c1.09 4.9 2.31 10.05 3.64 15.25 1.9 7.52 4 15.25 6.38 22.69.58 1.81 1.16 3.57 1.75 5.32.18.53.36 1.07.52 1.57.6 1.73 1.22 3.44 1.83 5.1.21.53.39 1.08.61 1.61.62 1.67 1.26 3.25 1.9 4.84.19.48.39 1 .62 1.51zM494 361.15A338.12 338.12 0 0 1 448.83 440l-12.65-12.89c-.07.11-.1.19-.17.29-68.73-57.84-62.58-140.53-62.58-140.53S391 346 454.93 372.12c36.18-71.8 43.45-153.72 43.17-227.34-28.68-10.2-56.6-28.42-83.71-46.11C380 76.27 347.55 55.08 321 55.08c-1 0-2 .08-2.95.13s-1.95 0-2.92.12-1.8.23-2.71.34c-1.07.12-2.11.22-3.19.4-.52.08-1 .22-1.56.3-27.08 5-55.11 23.85-84.56 43.73-15.41 10.39-31.1 21-47.28 29.93l-.21.12c-2.92 1.61-5.87 3.15-8.82 4.63l-1.11.59c-2.71 1.35-5.44 2.61-8.18 3.85-.64.29-1.27.6-1.89.87-2.53 1.12-5.09 2.13-7.63 3.11-.72.28-1.45.62-2.18.9-.65.24-1.28.53-1.93.75-.1 28.73 1 58.73 4.42 88.88l1.76-2.12c15.27-21.48 41.63-52.74 73.41-65.83l-2.82.07-9.61.18-30.94.59 24.46-18.29c5.34-4 10.72-7.94 16.34-11.57s11.32-7.14 17.15-10.42S249.88 120 256 117.2s12.35-5.31 18.7-7.55a164.54 164.54 0 0 1 19.42-5.6 154.51 154.51 0 0 1 19.95-3.28A176.54 176.54 0 0 1 374 105.3a179.92 179.92 0 0 1 19.13 5.91 172.42 172.42 0 0 1 18.38 8c5.94 3 11.81 6.22 17.45 9.81s11.18 7.36 16.48 11.49 10.45 8.47 15.4 13.19c2.46 2.4 4.86 4.81 7.29 7.62.32.34.61.71.94 1.09l.51.64.59.86.4.58v.05c.08.14-.09-.19.21.31l.1.2.2.39c.3.54.6 1.06.85 1.62a25.61 25.61 0 0 1 2.12 7.11 29.42 29.42 0 0 1-1.54 14 43.12 43.12 0 0 1-2.67 5.93c-.52.93-1 1.87-1.65 2.77-.08.12-.17.24-.24.36 44.9 53.58-23.1 103.9-23.1 103.9s4.3-49.51-69.75-81.55l48.11-6.58c4.75-39 30.08-30.08 30.08-30.08l.27.24a20.24 20.24 0 0 0 1.47-2.17 11.73 11.73 0 0 0 1.54-5 7.26 7.26 0 0 0-.29-2.24c-.05-.19-.13-.39-.19-.59l-.07-.14v-.08c.25.46 0 .1.1.17v-.07l-.23-.46-.06-.14c0-.06-.14-.24-.2-.36s-.33-.54-.52-.82a71.2 71.2 0 0 0-5.34-7.14 138.84 138.84 0 0 0-12.85-13.42 153.22 153.22 0 0 0-14.53-11.85 149.72 149.72 0 0 0-32.87-18.08 134.92 134.92 0 0 0-17.9-5.77 128.21 128.21 0 0 0-18.5-3.08 132.77 132.77 0 0 0-18.71-.33 143.89 143.89 0 0 0-18.5 2.21 162.76 162.76 0 0 0-18.09 4.41C291.9 120 286 122 280.29 124.38a212.5 212.5 0 0 0-33.11 17.25c-1.69 1.1-3.37 2.23-5 3.34l14.7-.37 38.19-1h.11l4.07-.1-37.37 20c-1.79 1-4 2.19-6.06 3.38s-4.13 2.45-6.19 3.75c-4.09 2.57-8.1 5.28-12.07 8.06-3.33 2.32-6.6 4.75-9.82 7.22a170.2 170.2 0 0 0-18.86 17.84l-.14.16a182.6 182.6 0 0 0-19.18 24.95 334.16 334.16 0 0 0-31.47 55.5l-1.37 3.15c-.87 2.07-1.73 4.17-2.56 6.29a240.46 240.46 0 0 0-6.79 19.48c-.33 1.1-.62 2.19-.93 3.31-.35 1.29-.72 2.54-1.06 3.83s-.62 2.46-.91 3.72c-.25 1-.5 2.08-.76 3.13a1.37 1.37 0 0 1-.08.35c-.33 1.51-.62 3-.91 4.49-.18.94-.41 1.9-.58 2.88-.44 2.45-.85 4.93-1.19 7.43A428.36 428.36 0 0 1 128.72 301c-11.56-47.8-16.72-102.33-15.85-167.28l.14-11.21 4.92-1.36 6.24-1.72c27-7.45 54.54-26 81.17-44 18.36-12.39 37-25 56.24-34.51 2.12-1 4.22-2 6.34-3l.88-.42c1.9-.85 3.8-1.64 5.7-2.41l1.59-.68a141 141 0 0 1 22.17-6.88c2-.42 4-.76 5.94-1.09.54-.08 1.05-.21 1.59-.29 1.69-.25 3.41-.41 5.12-.58.83-.08 1.64-.22 2.45-.27 1.4-.11 2.81-.12 4.22-.16 1.15-.05 2.29-.14 3.43-.14 36.05 0 72.34 23.68 110.77 48.74 28.61 18.66 58.17 38 86.06 45.67l11.16 3.06.14 11.2c1.23 93.89-9.93 166.18-35.14 227.48zm-36.5-150.44-2.57-12.32c-11.33 3.32-7.05 6.36-7.05 6.36zm-62.13 246.17a.07.07 0 0 1 0-.05C299.35 340.47 359 223.06 359 223.06a.43.43 0 0 0-.11.08l-.48.39-.12.08-.16.15-.17.13-.08.07c-.56.46-1.3 1.05-2.24 1.83-.23.18-.48.4-.74.62l-.35.29c-.21.21-.48.43-.73.64l-.56.49c-.34.28-.68.59-1 .89a.18.18 0 0 1-.09.09c-.8.71-1.65 1.46-2.55 2.3-.17.16-.35.33-.54.48s-.11.1-.16.16c-.67.62-1.35 1.28-2.07 2a.12.12 0 0 1-.06.05c-.47.44-.93.89-1.4 1.35l-.2.2a1.85 1.85 0 0 0-.28.28c-.46.48-1 1-1.45 1.43a.29.29 0 0 1-.09.1c-.32.34-.67.69-1 1s-.61.62-.94.94c-.06.08-.14.14-.19.22a2.32 2.32 0 0 0-.35.35h-.06l-1.55 1.63s-.06.07-.09.09c-.54.56-1.09 1.14-1.63 1.72-.17.19-.34.36-.49.54a.26.26 0 0 0-.09.1l-.51.52v.06c-.56.6-1.12 1.21-1.67 1.83-.95 1.06-1.93 2.15-2.92 3.28v.06c-.5.56-1 1.15-1.49 1.72l-.9 1.06-1.14 1.36c-.82 1-1.62 2-2.45 3-.22.25-.43.53-.66.81-.52.67-1 1.34-1.57 2-.29.4-.58.76-.88 1.16l-.11.13-.59.75c-.6.78-1.2 1.59-1.8 2.39l-.69.92c-.6.8-1.2 1.64-1.8 2.47-1.09 1.51-2.16 3-3.21 4.57-.62.9-1.22 1.78-1.81 2.69a.3.3 0 0 0-.09.13c-1 1.56-2.07 3.15-3.1 4.78-.59.94-1.19 1.89-1.77 2.85-.33.54-.66 1.07-1 1.61-.48.8-1 1.61-1.46 2.44-.27.47-.54.92-.8 1.38-.52.93-1.07 1.86-1.58 2.81v.06c-.29.5-.57 1-.84 1.53-.51.9-1 1.82-1.48 2.74-1 1.86-2 3.75-2.9 5.68v.07c-.46.92-.9 1.83-1.34 2.79-1 2.13-2 4.29-3 6.51v.06c-.5 1.12-1 2.29-1.47 3.44v.07c-.42 1-.83 2.07-1.24 3.08-.23.62-.47 1.21-.71 1.81-1.13 3-2.21 6-3.23 9-.13.4-.29.78-.4 1.2-.16.46-.32.94-.47 1.41a.08.08 0 0 0 0 .06c-.39 1.26-.78 2.5-1.16 3.77v.06c-.15.47-.28.93-.43 1.42v.1c-.38 1.27-.73 2.56-1.08 3.85-.15.51-.27 1-.4 1.52-.11.42-.2.82-.31 1.22-.35 1.43-.72 2.86-1.05 4.34s-.6 2.71-.88 4.06c-1.13 5.46-2 11.1-2.73 16.88 0 .24-.06.5-.1.73-.28 2.6-.53 5.2-.73 7.84 0 .53-.06 1.08-.11 1.61-.1 1.54-.18 3-.25 4.6v.05c-.07 1.5-.13 3-.15 4.56v6.39c0 1.54 0 3.16.11 4.71 0 .63 0 1.25.05 1.87.07 1.32.15 2.68.24 4 .05.84.08 1.71.16 2.59v.06c.38 5 .94 10.09 1.72 15.3v.06c.26 1.73.53 3.45.83 5.19.49 2.88 1.07 5.79 1.69 8.72a.12.12 0 0 0 0 .05c.38 1.8.77 3.61 1.22 5.45q1.73 7.2 4 14.57v.09c.88 2.89 1.87 5.82 2.88 8.78v.14c.71 2 1.43 4.08 2.2 6.14q3 7.92 6.6 16.08a.59.59 0 0 1 .07.16c1.06 2.35 2.13 4.69 3.26 7.07s-.11-.06-.17-.07l9.62 23.44L321 540l7.13-3.54c32.19-16 60.19-35.07 84.35-57.21L403 466.84zm-47.84-267.94-.3-.16a31.45 31.45 0 0 1-3.64-2.14l-18.34-10.84 11.96 1.2-.68-15c-5.77-9.4-24.07-11.32-24.07-11.32 10.75-3.64 46.33.64 61.29 15.81s27.37 18.61 27.37 18.61c-9.18 5.36-25.43-2.78-25.43-2.78-10.95 11.21-21.06 10.09-28.16 6.62zM370.92 178c-.4-.45-.77-.85-1.17-1.28-2.73 2.26-5.41 6.11-12.91 3.56-.3-.13-.64-.27-1.09-.42-4.75-1.72-5.89-6.91-6-10.84l.15-3.94c.05-.48.11-.8.11-.8l-.09.1.76-2a26.73 26.73 0 0 0-8.8-2.43v17.38c16.54 17.81 29.04.67 29.04.67z" transform="translate(-112.78 -24.97)"/><path class="cls-1" d="M268.05 505.51c.84 2.07 1.73 4.05 2.63 6-50-33.39-87.45-76.27-113.42-129.82.36-1.81.75-3.69 1.16-5.6.09-.43.2-.88.29-1.33.33-1.53.66-3.07 1-4.66.1-.46.21-.92.32-1.39q.56-2.4 1.17-4.89.19-.78.39-1.53.59-2.4 1.25-4.87c.06-.22.11-.43.17-.68 2.06-7.68 4.44-15.76 7.27-24 1.12 3.14 1.06 2.81-.08-.54 7.93-25 32.87-83.78 98.06-114-23.63-3.54-55.78 4.08-55.78 4.08 49.6-39.44 131-22.19 131-22.19S227.73 266.6 243.25 407.77s0 .16.06.4a269.92 269.92 0 0 0 7.49 39.45c1.09 4.9 2.31 10.05 3.64 15.25 1.9 7.52 4 15.25 6.38 22.69.58 1.81 1.16 3.57 1.75 5.32.18.53.36 1.07.52 1.57.6 1.73 1.22 3.44 1.83 5.1.21.53.39 1.08.61 1.61.62 1.67 1.26 3.25 1.9 4.84.19.48.39 1 .62 1.51zM494 361.15A338.12 338.12 0 0 1 448.83 440l-12.65-12.89c-.07.11-.1.19-.17.29-68.73-57.84-62.58-140.53-62.58-140.53S391 346 454.93 372.12c36.18-71.8 43.45-153.72 43.17-227.34-28.68-10.2-56.6-28.42-83.71-46.11C380 76.27 347.55 55.08 321 55.08c-1 0-2 .08-2.95.13s-1.95 0-2.92.12-1.8.23-2.71.34c-1.07.12-2.11.22-3.19.4-.52.08-1 .22-1.56.3-27.08 5-55.11 23.85-84.56 43.73-15.41 10.39-31.1 21-47.28 29.93l-.21.12c-2.92 1.61-5.87 3.15-8.82 4.63l-1.11.59c-2.71 1.35-5.44 2.61-8.18 3.85-.64.29-1.27.6-1.89.87-2.53 1.12-5.09 2.13-7.63 3.11-.72.28-1.45.62-2.18.9-.65.24-1.28.53-1.93.75-.1 28.73 1 58.73 4.42 88.88l1.76-2.12c15.27-21.48 41.63-52.74 73.41-65.83l-2.82.07-9.61.18-30.94.59 24.46-18.29c5.34-4 10.72-7.94 16.34-11.57s11.32-7.14 17.15-10.42S249.88 120 256 117.2s12.35-5.31 18.7-7.55a164.54 164.54 0 0 1 19.42-5.6 154.51 154.51 0 0 1 19.95-3.28A176.54 176.54 0 0 1 374 105.3a179.92 179.92 0 0 1 19.13 5.91 172.42 172.42 0 0 1 18.38 8c5.94 3 11.81 6.22 17.45 9.81s11.18 7.36 16.48 11.49 10.45 8.47 15.4 13.19c2.46 2.4 4.86 4.81 7.29 7.62.32.34.61.71.94 1.09l.51.64.59.86.4.58v.05c.08.14-.09-.19.21.31l.1.2.2.39c.3.54.6 1.06.85 1.62a25.61 25.61 0 0 1 2.12 7.11 29.42 29.42 0 0 1-1.54 14 43.12 43.12 0 0 1-2.67 5.93c-.52.93-1 1.87-1.65 2.77-.08.12-.17.24-.24.36 44.9 53.58-23.1 103.9-23.1 103.9s4.3-49.51-69.75-81.55l48.11-6.58c4.75-39 30.08-30.08 30.08-30.08l.27.24a20.24 20.24 0 0 0 1.47-2.17 11.73 11.73 0 0 0 1.54-5 7.26 7.26 0 0 0-.29-2.24c-.05-.19-.13-.39-.19-.59l-.07-.14v-.08c.25.46 0 .1.1.17v-.07l-.23-.46-.06-.14c0-.06-.14-.24-.2-.36s-.33-.54-.52-.82a71.2 71.2 0 0 0-5.34-7.14 138.84 138.84 0 0 0-12.85-13.42 153.22 153.22 0 0 0-14.53-11.85 149.72 149.72 0 0 0-32.87-18.08 134.92 134.92 0 0 0-17.9-5.77 128.21 128.21 0 0 0-18.5-3.08 132.77 132.77 0 0 0-18.71-.33 143.89 143.89 0 0 0-18.5 2.21 162.76 162.76 0 0 0-18.09 4.41C291.9 120 286 122 280.29 124.38a212.5 212.5 0 0 0-33.11 17.25c-1.69 1.1-3.37 2.23-5 3.34l14.7-.37 38.19-1h.11l4.07-.1-37.37 20c-1.79 1-4 2.19-6.06 3.38s-4.13 2.45-6.19 3.75c-4.09 2.57-8.1 5.28-12.07 8.06-3.33 2.32-6.6 4.75-9.82 7.22a170.2 170.2 0 0 0-18.86 17.84l-.14.16a182.6 182.6 0 0 0-19.18 24.95 334.16 334.16 0 0 0-31.47 55.5l-1.37 3.15c-.87 2.07-1.73 4.17-2.56 6.29a240.46 240.46 0 0 0-6.79 19.48c-.33 1.1-.62 2.19-.93 3.31-.35 1.29-.72 2.54-1.06 3.83s-.62 2.46-.91 3.72c-.25 1-.5 2.08-.76 3.13a1.37 1.37 0 0 1-.08.35c-.33 1.51-.62 3-.91 4.49-.18.94-.41 1.9-.58 2.88-.44 2.45-.85 4.93-1.19 7.43A428.36 428.36 0 0 1 128.72 301c-11.56-47.8-16.72-102.33-15.85-167.28l.14-11.21 4.92-1.36 6.24-1.72c27-7.45 54.54-26 81.17-44 18.36-12.39 37-25 56.24-34.51 2.12-1 4.22-2 6.34-3l.88-.42c1.9-.85 3.8-1.64 5.7-2.41l1.59-.68a141 141 0 0 1 22.17-6.88c2-.42 4-.76 5.94-1.09.54-.08 1.05-.21 1.59-.29 1.69-.25 3.41-.41 5.12-.58.83-.08 1.64-.22 2.45-.27 1.4-.11 2.81-.12 4.22-.16 1.15-.05 2.29-.14 3.43-.14 36.05 0 72.34 23.68 110.77 48.74 28.61 18.66 58.17 38 86.06 45.67l11.16 3.06.14 11.2c1.23 93.89-9.93 166.18-35.14 227.48zm-36.5-150.44-2.57-12.32c-11.33 3.32-7.05 6.36-7.05 6.36zm-62.13 246.17a.07.07 0 0 1 0-.05C299.35 340.47 359 223.06 359 223.06a.43.43 0 0 0-.11.08l-.48.39-.12.08-.16.15-.17.13-.08.07c-.56.46-1.3 1.05-2.24 1.83-.23.18-.48.4-.74.62l-.35.29c-.21.21-.48.43-.73.64l-.56.49c-.34.28-.68.59-1 .89a.18.18 0 0 1-.09.09c-.8.71-1.65 1.46-2.55 2.3-.17.16-.35.33-.54.48s-.11.1-.16.16c-.67.62-1.35 1.28-2.07 2a.12.12 0 0 1-.06.05c-.47.44-.93.89-1.4 1.35l-.2.2a1.85 1.85 0 0 0-.28.28c-.46.48-1 1-1.45 1.43a.29.29 0 0 1-.09.1c-.32.34-.67.69-1 1s-.61.62-.94.94c-.06.08-.14.14-.19.22a2.32 2.32 0 0 0-.35.35h-.06l-1.55 1.63s-.06.07-.09.09c-.54.56-1.09 1.14-1.63 1.72-.17.19-.34.36-.49.54a.26.26 0 0 0-.09.1l-.51.52v.06c-.56.6-1.12 1.21-1.67 1.83-.95 1.06-1.93 2.15-2.92 3.28v.06c-.5.56-1 1.15-1.49 1.72l-.9 1.06-1.14 1.36c-.82 1-1.62 2-2.45 3-.22.25-.43.53-.66.81-.52.67-1 1.34-1.57 2-.29.4-.58.76-.88 1.16l-.11.13-.59.75c-.6.78-1.2 1.59-1.8 2.39l-.69.92c-.6.8-1.2 1.64-1.8 2.47-1.09 1.51-2.16 3-3.21 4.57-.62.9-1.22 1.78-1.81 2.69a.3.3 0 0 0-.09.13c-1 1.56-2.07 3.15-3.1 4.78-.59.94-1.19 1.89-1.77 2.85-.33.54-.66 1.07-1 1.61-.48.8-1 1.61-1.46 2.44-.27.47-.54.92-.8 1.38-.52.93-1.07 1.86-1.58 2.81v.06c-.29.5-.57 1-.84 1.53-.51.9-1 1.82-1.48 2.74-1 1.86-2 3.75-2.9 5.68v.07c-.46.92-.9 1.83-1.34 2.79-1 2.13-2 4.29-3 6.51v.06c-.5 1.12-1 2.29-1.47 3.44v.07c-.42 1-.83 2.07-1.24 3.08-.23.62-.47 1.21-.71 1.81-1.13 3-2.21 6-3.23 9-.13.4-.29.78-.4 1.2-.16.46-.32.94-.47 1.41a.08.08 0 0 0 0 .06c-.39 1.26-.78 2.5-1.16 3.77v.06c-.15.47-.28.93-.43 1.42v.1c-.38 1.27-.73 2.56-1.08 3.85-.15.51-.27 1-.4 1.52-.11.42-.2.82-.31 1.22-.35 1.43-.72 2.86-1.05 4.34s-.6 2.71-.88 4.06c-1.13 5.46-2 11.1-2.73 16.88 0 .24-.06.5-.1.73-.28 2.6-.53 5.2-.73 7.84 0 .53-.06 1.08-.11 1.61-.1 1.54-.18 3-.25 4.6v.05c-.07 1.5-.13 3-.15 4.56v6.39c0 1.54 0 3.16.11 4.71 0 .63 0 1.25.05 1.87.07 1.32.15 2.68.24 4 .05.84.08 1.71.16 2.59v.06c.38 5 .94 10.09 1.72 15.3v.06c.26 1.73.53 3.45.83 5.19.49 2.88 1.07 5.79 1.69 8.72a.12.12 0 0 0 0 .05c.38 1.8.77 3.61 1.22 5.45q1.73 7.2 4 14.57v.09c.88 2.89 1.87 5.82 2.88 8.78v.14c.71 2 1.43 4.08 2.2 6.14q3 7.92 6.6 16.08a.59.59 0 0 1 .07.16c1.06 2.35 2.13 4.69 3.26 7.07s-.11-.06-.17-.07l9.62 23.44L321 540l7.13-3.54c32.19-16 60.19-35.07 84.35-57.21L403 466.84zm-47.84-267.94-.3-.16a31.45 31.45 0 0 1-3.64-2.14l-18.34-10.84 11.96 1.2-.68-15c-5.77-9.4-24.07-11.32-24.07-11.32 10.75-3.64 46.33.64 61.29 15.81s27.37 18.61 27.37 18.61c-9.18 5.36-25.43-2.78-25.43-2.78-10.95 11.21-21.06 10.09-28.16 6.62zM370.92 178c-.4-.45-.77-.85-1.17-1.28-2.73 2.26-5.41 6.11-12.91 3.56-.3-.13-.64-.27-1.09-.42-4.75-1.72-5.89-6.91-6-10.84l.15-3.94c.05-.48.11-.8.11-.8l-.09.1.76-2a26.73 26.73 0 0 0-8.8-2.43v17.38c16.54 17.81 29.04.67 29.04.67z" transform="translate(-112.78 -24.97)"/><path class="cls-1" d="M412.49 479.28 403 466.84l-7.61-10a.07.07 0 0 1 0-.05c-89.9-108.9-43.4-218.71-37.07-232.35l-.27-.68s-105.6 127.65 1.05 295.49a349.22 349.22 0 0 0 53.39-39.97z" transform="translate(-112.78 -24.97)"/><path class="cls-1" d="M454.93 372.12c-63.9-26.16-81.5-85.28-81.5-85.28s9 75.14 70.11 110.94zM423.25 212.92l-48.11 6.58c74.05 32 69.75 81.55 69.75 81.55 18.22-60.69-21.64-88.13-21.64-88.13zM517.85 119.38c-27.89-7.71-57.45-27-86.06-45.67C393.36 48.65 357.07 25 321 25v30.08c26.54 0 59 21.19 93.37 43.59 27.11 17.69 55 35.91 83.71 46.11v2.71L529 123.64v-1.17zM148.3 233.69c-3.46-30.15-4.51-60.14-4.41-88.87L113 122.51l-.14 11.21c-.74 57.16 3.15 106.26 12 149.78a190.37 190.37 0 0 1 23.44-49.81z" transform="translate(-112.78 -24.97)"/><path class="cls-1" d="M463.49 195.62s43.61 36.85-7.15 94.23c0 0 7.88-55-21.8-77.11zM343.53 200.13s-64.53 19.35-106.7 65.61a141.06 141.06 0 0 0-26 39.72A241.44 241.44 0 0 0 185.13 429a313.32 313.32 0 0 0 22.08 27.66l.27.29c1.5 1.68 3 3.37 4.53 5v-.1a331.43 331.43 0 0 0 58.66 49.65c-.9-1.92-1.79-3.9-2.63-6-.23-.5-.43-1-.64-1.54-.64-1.59-1.28-3.17-1.9-4.84-.22-.53-.4-1.08-.61-1.61-.61-1.66-1.23-3.37-1.83-5.1-.16-.5-.34-1-.52-1.57-.59-1.75-1.17-3.51-1.75-5.32-2.35-7.44-4.48-15.17-6.38-22.69-1.33-5.2-2.55-10.35-3.64-15.25a269.92 269.92 0 0 1-7.49-39.45c0-.24-.06-.4-.06-.4-15.49-141.13 100.31-207.6 100.31-207.6z" transform="translate(-112.78 -24.97)"/><path class="cls-1" d="M291.91 223.06s-.66.33-1.84 1-2.89 1.74-5.06 3.08-4.75 3.08-7.64 5.16-6.1 4.46-9.49 7.22-7 5.87-10.74 9.13c-1.85 1.69-3.65 3.53-5.54 5.35s-3.85 3.65-5.65 5.7l-5.64 6.09c-1.93 2-3.61 4.34-5.45 6.53s-3.72 4.39-5.36 6.77l-5 7.12-2.54 3.54-2.28 3.7q-2.28 3.7-4.52 7.36a79.69 79.69 0 0 0-4.06 7.47l-3.78 7.39c-1.34 2.39-2.21 4.93-3.27 7.33s-2 4.78-3 7.09c-2.13 4.54-3.32 9.14-4.74 13.27q-1 3.12-2 6l-.93 2.76c-.23.91-.44 1.8-.66 2.67-.84 3.45-1.57 6.47-2.17 8.95l-1.95 7.81s.52-2.88 1.45-7.91c.47-2.52 1.06-5.58 1.72-9.09.17-.88.34-1.79.52-2.72s.53-1.85.8-2.81c.56-1.93 1.14-3.95 1.76-6.07 1.3-4.2 2.36-8.87 4.36-13.52l2.81-7.25a67.55 67.55 0 0 1 3.19-7.45l3.74-7.52a83.73 83.73 0 0 1 4-7.59l4.5-7.5 2.27-3.78 2.54-3.6 5.16-7.15c1.68-2.4 3.68-4.54 5.49-6.8s3.61-4.5 5.58-6.55l5.77-6.1c1.85-2 3.84-3.88 5.8-5.66s3.84-3.59 5.75-5.23c3.93-3.18 7.51-6.33 11.11-8.88 1.78-1.29 3.43-2.61 5.1-3.72l4.76-3.13c3-1.94 5.69-3.51 7.91-4.79 4.52-2.52 7.22-3.67 7.22-3.67z" transform="translate(-112.78 -24.97)"/></svg>