<svg id="Layer_1" data-name="Layer 1" xmlns="http://www.w3.org/2000/svg" viewBox="0 0 248.1 138.31"><defs><style>.cls-1{fill:#fff;}</style></defs><path class="cls-1" d="M149.54,217.66a7.43,7.43,0,0,1-5.26-2.24L29.64,95.4a7.91,7.91,0,0,1-2.19-5.23V88.46l.18,0A7.57,7.57,0,0,1,35,82.67a7,7,0,0,1,5.26,2.24L150.14,199,259.45,84.93a8.44,8.44,0,0,1,5.84-2.58,6.52,6.52,0,0,1,4.7,2,8.59,8.59,0,0,1,2.53,5.11,6.6,6.6,0,0,1-1.92,5.4l-.61.61-115.18,120A7.43,7.43,0,0,1,149.54,217.66Z" transform="translate(-25.95 -80.85)"/><path d="M265.29,83.85a5.08,5.08,0,0,1,3.64,1.51c2.39,2.39,3,6,.6,8.39l-.6.61-115.2,120a5.81,5.81,0,0,1-8.39,0L30.73,94.36A6.43,6.43,0,0,1,29,90.17h0a6,6,0,0,1,6-6,5.47,5.47,0,0,1,4.2,1.8l111,115.2L260.54,86a6.87,6.87,0,0,1,4.75-2.12m0-3a9.89,9.89,0,0,0-6.88,3l0,0,0,0L150.14,196.84,41.31,83.89l0,0,0,0A8.47,8.47,0,0,0,35,81.17,9,9,0,0,0,26.51,87L26,87v3.15a9.42,9.42,0,0,0,2.63,6.29l114.59,120,0,0,0,0a8.8,8.8,0,0,0,12.63,0l0,0,0,0,115.17-120,.59-.59A8.06,8.06,0,0,0,274,89.25a10.06,10.06,0,0,0-3-6,8.12,8.12,0,0,0-5.76-2.39Z" transform="translate(-25.95 -80.85)"/></svg>